<svg xmlns="http://www.w3.org/2000/svg" width="1024" height="1024" viewBox="0 0 1024 1024" fill="none">
  <defs>
    <linearGradient id="bg" x1="180" y1="120" x2="844" y2="912" gradientUnits="userSpaceOnUse">
      <stop stop-color="#FFF7E9"/>
      <stop offset="1" stop-color="#E7F0EA"/>
    </linearGradient>
    <linearGradient id="lead" x1="348" y1="272" x2="692" y2="746" gradientUnits="userSpaceOnUse">
      <stop stop-color="#1FA38F"/>
      <stop offset="1" stop-color="#0E665F"/>
    </linearGradient>
    <linearGradient id="sand" x1="212" y1="284" x2="470" y2="626" gradientUnits="userSpaceOnUse">
      <stop stop-color="#E8C99A"/>
      <stop offset="1" stop-color="#BE9158"/>
    </linearGradient>
    <linearGradient id="slate" x1="512" y1="208" x2="796" y2="558" gradientUnits="userSpaceOnUse">
      <stop stop-color="#415267"/>
      <stop offset="1" stop-color="#213241"/>
    </linearGradient>
    <filter id="shadow" x="113" y="139" width="798" height="757" filterUnits="userSpaceOnUse" color-interpolation-filters="sRGB">
      <feFlood flood-opacity="0" result="BackgroundImageFix"/>
      <feColorMatrix in="SourceAlpha" type="matrix" values="0 0 0 0 0 0 0 0 0 0 0 0 0 0 0 0 0 0 127 0" result="hardAlpha"/>
      <feOffset dy="26"/>
      <feGaussianBlur stdDeviation="28"/>
      <feColorMatrix type="matrix" values="0 0 0 0 0.105882 0 0 0 0 0.152941 0 0 0 0 0.145098 0 0 0 0.18 0"/>
      <feBlend mode="normal" in2="BackgroundImageFix" result="effect1_dropShadow_0_1"/>
      <feBlend mode="normal" in="SourceGraphic" in2="effect1_dropShadow_0_1" result="shape"/>
    </filter>
  </defs>

  <rect width="1024" height="1024" rx="232" fill="url(#bg)"/>
  <circle cx="232" cy="222" r="140" fill="#F7E5C5" fill-opacity="0.6"/>
  <circle cx="814" cy="794" r="168" fill="#CDE4DC" fill-opacity="0.7"/>

  <g filter="url(#shadow)">
    <g transform="translate(214 366) rotate(-7 166 144)">
      <rect width="332" height="288" rx="52" fill="url(#sand)"/>
      <rect x="26" y="42" width="280" height="34" rx="17" fill="#FFF8EF" fill-opacity="0.78"/>
      <circle cx="50" cy="146" r="18" fill="#FFF5E5"/>
      <rect x="86" y="128" width="176" height="36" rx="18" fill="#FFF5E5"/>
      <rect x="50" y="194" width="232" height="28" rx="14" fill="#FFF0DC" fill-opacity="0.88"/>
    </g>

    <g transform="translate(494 226) rotate(7 148 126)">
      <rect width="296" height="252" rx="46" fill="url(#slate)"/>
      <rect x="24" y="38" width="248" height="30" rx="15" fill="#DCE7EE" fill-opacity="0.3"/>
      <circle cx="52" cy="118" r="16" fill="#D7E4EC" fill-opacity="0.92"/>
      <rect x="82" y="102" width="138" height="32" rx="16" fill="#D7E4EC" fill-opacity="0.92"/>
      <rect x="52" y="162" width="194" height="24" rx="12" fill="#D7E4EC" fill-opacity="0.6"/>
    </g>

    <g transform="translate(292 274)">
      <rect width="438" height="390" rx="72" fill="url(#lead)"/>
      <rect x="36" y="42" width="366" height="42" rx="21" fill="#E4FFF8" fill-opacity="0.3"/>
      <circle cx="88" cy="142" r="24" fill="#EFFDF8"/>
      <circle cx="148" cy="142" r="24" fill="#B3F1E4"/>
      <circle cx="208" cy="142" r="24" fill="#73E0CB"/>
      <rect x="72" y="214" width="292" height="42" rx="21" fill="#F4FFFC"/>
      <rect x="72" y="286" width="218" height="32" rx="16" fill="#D0F8EF"/>
      <rect x="72" y="338" width="248" height="32" rx="16" fill="#B7F0E2"/>
    </g>
  </g>

  <path d="M775 244C802.187 244 824.357 222.359 824.959 195.316L825 192V158C825 130.386 847.386 108 875 108C902.614 108 925 130.386 925 158V192C925 277.604 855.604 347 770 347H740C712.386 347 690 324.614 690 297C690 269.386 712.386 247 740 247H775V244Z" fill="#1E6F66" fill-opacity="0.16"/>
</svg>
